<?xml version="1.0" encoding="utf-8"?>
<!-- Generator: Adobe Illustrator 24.2.0, SVG Export Plug-In . SVG Version: 6.00 Build 0)  -->
<svg version="1.1" id="Capa_1" xmlns="http://www.w3.org/2000/svg" xmlns:xlink="http://www.w3.org/1999/xlink" x="0px" y="0px"
	 viewBox="0 0 257.8 77.7" style="enable-background:new 0 0 257.8 77.7;" xml:space="preserve">
<g>
	<path d="M21.8,28.9H7.3v-5.2h35.3v5.2H28.1v42.4h-6.2V28.9z"/>
	<path d="M61.2,71.3L45.6,23.7h6.7l7.4,23.5c2,6.4,3.7,12.2,5.1,17.8H65c1.3-5.5,3.3-11.5,5.4-17.8l8.1-23.6h6.6L68,71.3H61.2z"/>
	<path d="M90.2,24.4c2.7-0.6,7-1.1,11.2-1.1c6.2,0,10.1,1.1,13,3.5c2.5,1.8,4,4.7,4,8.4c0,4.7-3.1,8.7-8.1,10.5v0.2
		c4.5,1.1,9.8,4.8,9.8,11.9c0,4.1-1.6,7.3-4.1,9.5c-3.3,3-8.6,4.5-16.4,4.5c-4.2,0-7.5-0.3-9.5-0.6V24.4z M96.4,43.9h5.6
		c6.4,0,10.3-3.5,10.3-8.1c0-5.5-4.2-7.8-10.4-7.8c-2.8,0-4.5,0.2-5.4,0.4V43.9z M96.4,66.7c1.3,0.2,3,0.3,5.2,0.3
		c6.4,0,12.2-2.3,12.2-9.3c0-6.4-5.6-9.2-12.3-9.2h-5.1V66.7z"/>
	<path d="M169.3,47c0,16.3-10,25.1-22.1,25.1c-12.7,0-21.4-9.8-21.4-24.3c0-15.1,9.3-25,22.1-25C160.9,22.8,169.3,32.8,169.3,47z
		 M132.2,47.7c0,10.3,5.5,19.4,15.3,19.4s15.3-9,15.3-19.8c0-9.5-5-19.4-15.2-19.4C137.3,27.8,132.2,37.3,132.2,47.7z"/>
	<path d="M201.5,71.3l-6.2-10.5c-2.5-4-4-6.6-5.4-9.4h-0.1c-1.3,2.8-2.8,5.3-5.2,9.5l-5.7,10.5h-7.1l14.6-24.1l-14-23.6h7.1
		l6.3,11.2c1.8,3.1,3.1,5.5,4.4,8.1h0.2c1.3-2.8,2.5-5,4.3-8.1l6.4-11.2h7.1l-14.5,23.2l14.9,24.5H201.5z"/>
</g>
<g>
	<path d="M6.5,8C7.2,7.9,8,7.8,8.9,7.8c1.7,0,2.8,0.4,3.6,1.1c0.8,0.7,1.3,1.8,1.3,3.2c0,1.5-0.5,2.7-1.3,3.5
		c-0.8,0.8-2.2,1.3-4,1.3c-0.8,0-1.5,0-2.1-0.1V8z M7.6,15.9C7.9,16,8.3,16,8.8,16c2.5,0,3.8-1.4,3.8-3.8c0-2.1-1.2-3.4-3.6-3.4
		c-0.6,0-1,0.1-1.4,0.1V15.9z"/>
	<path d="M16.5,7.9v8.9h-1.2V7.9H16.5z"/>
	<path d="M18.3,15.4c0.5,0.3,1.3,0.6,2.1,0.6c1.2,0,1.9-0.6,1.9-1.5c0-0.8-0.5-1.3-1.7-1.8c-1.5-0.5-2.4-1.3-2.4-2.5
		c0-1.4,1.2-2.4,2.9-2.4c0.9,0,1.6,0.2,2,0.4l-0.3,0.9c-0.3-0.2-0.9-0.4-1.7-0.4c-1.2,0-1.7,0.7-1.7,1.3c0,0.8,0.5,1.2,1.8,1.7
		c1.5,0.6,2.3,1.3,2.3,2.6c0,1.4-1,2.6-3.1,2.6c-0.9,0-1.8-0.3-2.3-0.6L18.3,15.4z"/>
	<path d="M25,8c0.6-0.1,1.3-0.2,2.2-0.2c1.1,0,2,0.3,2.5,0.7c0.5,0.4,0.8,1.1,0.8,1.9c0,0.8-0.2,1.4-0.7,1.9c-0.6,0.6-1.6,1-2.7,1
		c-0.3,0-0.7,0-0.9-0.1v3.6H25V8z M26.2,12.3c0.3,0.1,0.6,0.1,1,0.1c1.4,0,2.2-0.7,2.2-1.9c0-1.2-0.8-1.8-2.1-1.8
		c-0.5,0-0.9,0-1.1,0.1V12.3z"/>
	<path d="M39.7,12.3c0,3.1-1.9,4.7-4.2,4.7c-2.4,0-4-1.8-4-4.5c0-2.8,1.8-4.7,4.1-4.7C38.1,7.7,39.7,9.6,39.7,12.3z M32.7,12.4
		c0,1.9,1,3.6,2.9,3.6c1.8,0,2.9-1.7,2.9-3.7c0-1.8-0.9-3.6-2.9-3.6S32.7,10.5,32.7,12.4z"/>
	<path d="M41,15.4c0.5,0.3,1.3,0.6,2.1,0.6c1.2,0,1.9-0.6,1.9-1.5c0-0.8-0.5-1.3-1.7-1.8c-1.5-0.5-2.4-1.3-2.4-2.5
		c0-1.4,1.2-2.4,2.9-2.4c0.9,0,1.6,0.2,2,0.4l-0.3,0.9c-0.3-0.2-0.9-0.4-1.7-0.4c-1.2,0-1.7,0.7-1.7,1.3c0,0.8,0.5,1.2,1.8,1.7
		c1.5,0.6,2.3,1.3,2.3,2.6c0,1.4-1,2.6-3.1,2.6c-0.9,0-1.8-0.3-2.3-0.6L41,15.4z"/>
	<path d="M48.9,7.9v8.9h-1.2V7.9H48.9z"/>
	<path d="M52.6,8.9h-2.7v-1h6.6v1h-2.7v8h-1.2V8.9z"/>
	<path d="M58.6,7.9v8.9h-1.2V7.9H58.6z"/>
	<path d="M62.6,16.8l-2.9-8.9h1.3l1.4,4.4c0.4,1.2,0.7,2.3,1,3.3h0c0.3-1,0.6-2.2,1-3.3l1.5-4.4h1.2l-3.2,8.9H62.6z"/>
	<path d="M75.7,12.3c0,3.1-1.9,4.7-4.2,4.7c-2.4,0-4-1.8-4-4.5c0-2.8,1.8-4.7,4.1-4.7C74.1,7.7,75.7,9.6,75.7,12.3z M68.7,12.4
		c0,1.9,1,3.6,2.9,3.6c1.8,0,2.9-1.7,2.9-3.7c0-1.8-0.9-3.6-2.9-3.6S68.7,10.5,68.7,12.4z"/>
	<path d="M77,15.4c0.5,0.3,1.3,0.6,2.1,0.6c1.2,0,1.9-0.6,1.9-1.5c0-0.8-0.5-1.3-1.7-1.8c-1.5-0.5-2.4-1.3-2.4-2.5
		c0-1.4,1.2-2.4,2.9-2.4c0.9,0,1.6,0.2,2,0.4l-0.3,0.9c-0.3-0.2-0.9-0.4-1.7-0.4c-1.2,0-1.7,0.7-1.7,1.3c0,0.8,0.5,1.2,1.8,1.7
		c1.5,0.6,2.3,1.3,2.3,2.6c0,1.4-1,2.6-3.1,2.6c-0.9,0-1.8-0.3-2.3-0.6L77,15.4z"/>
	<path d="M86.5,8c0.7-0.1,1.5-0.2,2.5-0.2c1.7,0,2.8,0.4,3.6,1.1c0.8,0.7,1.3,1.8,1.3,3.2c0,1.5-0.5,2.7-1.3,3.5
		c-0.8,0.8-2.2,1.3-4,1.3c-0.8,0-1.5,0-2.1-0.1V8z M87.7,15.9c0.3,0,0.7,0.1,1.2,0.1c2.5,0,3.8-1.4,3.8-3.8c0-2.1-1.2-3.4-3.6-3.4
		c-0.6,0-1,0.1-1.4,0.1V15.9z"/>
	<path d="M100,12.7h-3.5v3.2h3.9v1h-5V7.9h4.8v1h-3.7v2.8h3.5V12.7z"/>
	<path d="M109.3,12.7h-3.5v3.2h3.9v1h-5V7.9h4.8v1h-3.7v2.8h3.5V12.7z"/>
	<path d="M111.2,16.8V7.9h1.3l2.9,4.5c0.6,1,1.2,2,1.6,2.9l0,0c-0.1-1.2-0.1-2.3-0.1-3.7V7.9h1.1v8.9h-1.2l-2.8-4.5
		c-0.6-1-1.2-2-1.7-3l0,0c0.1,1.1,0.1,2.2,0.1,3.7v3.8H111.2z"/>
	<path d="M121.6,8.9h-2.7v-1h6.6v1h-2.7v8h-1.2V8.9z"/>
	<path d="M126.5,8c0.6-0.1,1.4-0.2,2.2-0.2c1.2,0,2,0.2,2.6,0.7c0.4,0.4,0.7,1,0.7,1.7c0,1.2-0.7,1.9-1.7,2.3v0
		c0.7,0.2,1.1,0.9,1.3,1.8c0.3,1.2,0.5,2.1,0.7,2.5h-1.2c-0.1-0.3-0.3-1-0.6-2.1c-0.3-1.2-0.8-1.7-1.8-1.7h-1.1v3.9h-1.2V8z
		 M127.7,12.1h1.2c1.2,0,2-0.7,2-1.7c0-1.2-0.8-1.7-2.1-1.7c-0.6,0-0.9,0-1.1,0.1V12.1z"/>
	<path d="M138.3,12.7h-3.5v3.2h3.9v1h-5V7.9h4.8v1h-3.7v2.8h3.5V12.7z"/>
	<path d="M142.1,8.9h-2.7v-1h6.6v1h-2.7v8h-1.2V8.9z"/>
	<path d="M151.6,12.7h-3.5v3.2h3.9v1h-5V7.9h4.8v1h-3.7v2.8h3.5V12.7z"/>
	<path d="M153.5,16.8V7.9h1.3l2.9,4.5c0.6,1,1.2,2,1.6,2.9l0,0c-0.1-1.2-0.1-2.3-0.1-3.7V7.9h1.1v8.9H159l-2.8-4.5
		c-0.6-1-1.2-2-1.7-3l0,0c0.1,1.1,0.1,2.2,0.1,3.7v3.8H153.5z"/>
	<path d="M163.4,7.9v8.9h-1.2V7.9H163.4z"/>
	<path d="M172.9,12.9c-0.1-1.2-0.1-2.8-0.1-3.9h0c-0.3,1-0.7,2.2-1.1,3.4l-1.6,4.3h-0.9l-1.5-4.3c-0.4-1.3-0.8-2.4-1-3.5h0
		c0,1.1-0.1,2.6-0.2,4l-0.2,3.8h-1.1l0.6-8.9h1.5l1.5,4.3c0.4,1.1,0.7,2.1,0.9,3h0c0.2-0.9,0.6-1.9,1-3l1.6-4.3h1.5l0.6,8.9h-1.1
		L172.9,12.9z"/>
	<path d="M177.2,7.9v8.9H176V7.9H177.2z"/>
	<path d="M183.8,12.7h-3.5v3.2h3.9v1h-5V7.9h4.8v1h-3.7v2.8h3.5V12.7z"/>
	<path d="M185.7,16.8V7.9h1.3l2.9,4.5c0.6,1,1.2,2,1.6,2.9l0,0c-0.1-1.2-0.1-2.3-0.1-3.7V7.9h1.1v8.9h-1.2l-2.8-4.5
		c-0.6-1-1.2-2-1.7-3l0,0c0.1,1.1,0.1,2.2,0.1,3.7v3.8H185.7z"/>
	<path d="M196.1,8.9h-2.7v-1h6.6v1h-2.7v8h-1.2V8.9z"/>
	<path d="M208.3,12.3c0,3.1-1.9,4.7-4.2,4.7c-2.4,0-4-1.8-4-4.5c0-2.8,1.8-4.7,4.1-4.7C206.7,7.7,208.3,9.6,208.3,12.3z M201.4,12.4
		c0,1.9,1,3.6,2.9,3.6s2.9-1.7,2.9-3.7c0-1.8-0.9-3.6-2.9-3.6C202.3,8.7,201.4,10.5,201.4,12.4z"/>
</g>
</svg>
