<?xml version="1.0" encoding="utf-8"?>
<!-- Generator: Adobe Illustrator 24.2.0, SVG Export Plug-In . SVG Version: 6.00 Build 0)  -->
<svg version="1.1" id="Capa_1" xmlns="http://www.w3.org/2000/svg" xmlns:xlink="http://www.w3.org/1999/xlink" x="0px" y="0px"
	 viewBox="0 0 257.8 77.7" style="enable-background:new 0 0 257.8 77.7;" xml:space="preserve">
<style type="text/css">
	.st0{fill:#FFBDE0;}
	.st1{fill:#F91F6D;}
</style>
<path class="st0" d="M94.8,75.5c-0.7-0.3-1.1-1.1-1.3-2.4l-0.2-1.9l-0.7,2.1c-1.3,3.7-4.8,2.5-4.9-1.6c0-1.3-0.2-2.4-0.5-2.6
	c-0.2-0.2-0.3,0.7-0.2,2c0.1,1.3,0,2.7-0.2,3.1c-0.6,1-3.1,0.7-4.8-0.6c-0.7-0.5-1.8-0.9-2.4-0.8c-1.8,0.2-4.2-0.9-6.8-3.1
	c-1.3-1.1-2.9-1.9-3.5-1.9c-1.4,0.1-3.7-2.1-3.9-3.8c-0.1-0.9-0.3-1-0.4-0.4c-0.4,1.8-2.3,1.3-3.1-0.9c-0.6-1.6-1-2-2.2-1.9
	c-1.5,0.1-2.2-0.4-4.9-3.5c-0.9-1-2.4-2.2-3.4-2.8c-1.2-0.7-1.9-1.4-2-2.3c-0.1-1-0.3-1.2-1-1c-0.5,0.2-1.2-0.1-1.8-0.8
	c-0.5-0.6-1.7-1.4-2.5-1.6c-2.1-0.7-6.9-3.8-7-4.6c0-0.3,0.4-1,1.1-1.5c1-0.8,1.4-0.8,2.7-0.3c0.9,0.3,1.9,0.6,2.3,0.5
	c0.4,0,0.7,0.2,0.8,0.5c0,0.3,0.6,0.5,1.2,0.4c0.6-0.1,1.7,0.3,2.3,0.8c0.9,0.7,1.3,0.7,1.8,0.3c0.4-0.5,1.2-0.4,2.8,0.1
	c2.1,0.7,2.2,0.8,2,3l-0.2,2.2l1.3-2.1c1.2-1.8,1.6-2.1,3.7-2.3c1.3-0.1,3.7-0.7,5.4-1.3c3.7-1.3,5.2-0.8,3.1,1.1
	c-1.1,1-1.1,1.2-0.3,1.1c0.6,0,1-0.3,1-0.5c-0.1-0.7,3.1-1.9,5.4-2.1c1.4-0.1,2,0.1,2,0.7c0.1,0.8,0.1,0.8,1.1-0.1
	c1.1-1.1,4.4-1.6,4.8-0.7c0.1,0.3,1.4,0.5,2.8,0.3c3.2-0.2,5.2,0.2,5.3,1.3c0,0.4-0.4,1.7-0.9,2.8c-1,2.1-1.2,3.6-0.4,3.5
	c0.3,0,0.7-1,1.1-2.2c0.7-2.5,2.5-4.1,4.8-4c1.2,0,1.6,0.3,1.6,1.3c0.1,1.2,0.1,1.2,0.7,0.2c0.4-0.6,1-1.1,1.5-1.2
	c0.4-0.1,1.3-0.4,1.9-0.6c1.5-0.6,2.6,1.3,3,5.3c0.2,2.3,0.5,3.1,1,2.9c0.4-0.2,0.6-0.7,0.5-1.3c-0.1-0.5-0.5-2.2-0.8-3.7l-0.6-2.7
	l2.3-0.2c2.5-0.2,2.5-0.1,4.2,4.1c0.4,0.9-0.1-1.4-0.7-4.2c-0.4-1.5,3.5-2.7,5.1-1.7c1,0.7,1.2,0.6,1.8-0.1c0.5-0.6,1.3-0.8,2.4-0.7
	c1.3,0.1,1.7-0.1,1.9-0.9c0.3-1.2,0.8-1.4,1.9-0.5c0.7,0.5,0.9,0.5,1-0.1c0.2-0.7,1.8-1.1,1.9-0.4c0,0.2,0.5,0.9,1,1.4
	c0.9,0.9,0.9,0.8-0.1-0.7c-1.5-2.3-1-3.1,2.1-3.6c1.9-0.3,2.8-0.2,3.6,0.4c1.3,1.1,2.1,1,1.8-0.1c-0.3-1.1,2.7-1.8,4.7-1.1
	c0.9,0.4,1.5,0.3,1.9-0.1c0.8-0.8,3.4-1,4.3-0.4c0.4,0.3,1,0.3,1.4,0c1.2-0.8,4.1-1,5.8-0.4c1.3,0.5,1.6,0.5,1.6-0.1
	c-0.1-0.8,6.2-3.8,7.7-3.6c2,0.2,1.7,2.3-0.5,4.6c-4.1,4.2-5.6,5.1-6.3,3.7c-0.2-0.3-0.3,0-0.3,0.7c0,0.7-0.1,1.6-0.3,1.9
	c-0.7,1.1-4.3,3.8-5.2,3.9c-0.5,0-1,0.7-1.1,1.4c-0.1,0.7-0.9,1.8-1.7,2.4c-0.8,0.6-3,2.7-4.9,4.7c-1.9,2-3.5,3.5-3.7,3.4
	c-0.2-0.1-0.6-1.1-0.9-2.2l-0.6-1.9l0.1,2.4c0.1,2.2-0.1,2.7-2.9,5.7c-1.7,1.8-3.3,3.3-3.5,3.3c-0.2,0-0.5-0.6-0.6-1.4
	c-0.2-1.2-0.3-1.1-0.7,0.8c-0.8,3.7-3.6,6.1-4.5,3.8c-0.3-0.8-0.6-0.7-2.3,1c-2.9,2.9-3.6,2.6-4.4-2.1l-0.7-3.9l0.2,3.4
	c0.3,4.5-0.6,5.9-3.7,6.1c-1.8,0.2-2.4,0-2.8-0.9c-0.5-1-0.6-1-1.2-0.2c-0.4,0.5-1.6,1-2.9,1.1c-3.4,0.3-4-0.1-4.3-2.2l-0.2-1.9
	l-0.3,1.8c-0.2,1-0.5,2-0.8,2.3C98.3,75.5,95.8,76,94.8,75.5L94.8,75.5z M108.7,67.7c-0.2-2.3-0.6-3.9-0.9-3.9
	c-0.6,0.1-0.3,5.8,0.4,7.1C109,72.4,109.1,71.7,108.7,67.7L108.7,67.7z M77.8,63.2c-0.6-0.7-0.9-0.5-0.8,0.4c0,0.5,0.3,0.6,0.6,0.4
	C77.9,63.9,78,63.5,77.8,63.2L77.8,63.2z M116.7,47.3c-2-3-2.2-1.5-0.2,1.7c1,1.6,1.6,2.2,1.7,1.6C118.2,50.1,117.6,48.6,116.7,47.3
	L116.7,47.3z M95.9,36c-0.9-0.7-2.1-1.2-3-1.1c-2.4,0.2-4-1.9-4.5-5.6c-0.2-1.9-0.4-2.4-0.4-1.4c-0.1,4.5-1.1,5.5-3,3.4
	c-0.9-0.9-1-1-1.8-0.2c-0.7,0.8-1.1,0.8-3.3,0.3c-2-0.4-3-0.4-4.6,0.2c-3.2,1.2-3.8,1.1-4.7-1c-1.4-3.1-1.9-3-1.3,0.1
	c0.6,2.8,0.5,2.9-0.9,3.4c-1.8,0.6-3.3-0.2-3.4-1.8c-0.1-0.6-0.5-1.5-0.9-2c-0.7-0.7-0.8-0.6-0.4,1.2c0.7,3.4-1.3,5.7-3.5,4
	c-0.6-0.4-0.8-0.3-1,0.4c-0.5,1.5-1.6,1.2-3.3-0.8c-1.8-2.2-2.7-2-2.5,0.6l0.2,1.8l-3,0.4c-2.5,0.4-3.1,0.3-3.8-0.6
	c-0.8-0.9-0.9-0.9-1.8-0.1c-0.7,0.7-1.2,0.8-1.8,0.4c-0.6-0.4-1.7-0.1-4,0.9c-2.7,1.2-3.3,1.3-3.8,0.7c-0.7-0.8-0.5-1.7,1-4.2
	c0.9-1.4,1.5-1.9,2.9-2c1.9-0.2,5.7-3.4,5.6-4.7c-0.1-0.8,2.5-2,5.3-2.4c1.8-0.3,2.3-0.6,2.4-1.5c0.1-1.4,2.6-3.4,4.9-4
	c1-0.3,1.8-0.9,2-1.5c0.1-0.6,0.6-1.1,1.1-1.1c0.5,0,0.8-0.3,0.8-0.6c-0.1-1.3,2.2-0.6,3.3,1c1.3,1.8,2.2,2.2,2.1,1
	c0-0.4-0.5-1.2-1-1.9c-1.4-1.9-1.3-2.2,1.5-4.2c3.9-2.8,4.9-3.3,5.9-3c0.5,0.1,0.9,0,0.9-0.3c-0.1-1,0.9-0.7,1.7,0.5
	c0.7,1,0.7,1,0.3-0.5c-0.4-1.3-0.2-1.8,0.6-2.3c2.7-1.6,3.8-1.9,5.5-1.3c2,0.8,2.1,0.8,2-0.2c-0.1-0.9,1.4-1.2,2-0.4
	c0.3,0.4,0.6,0.3,1.1-0.1c2.3-2.1,5.6-1.1,6.7,1.9c0.7,1.7,0.7,1.8,0.7,0.5c-0.1-1.7,1.4-2.1,2-0.6c0.3,0.6,1,1,1.6,0.9
	c0.7-0.1,1.2,0.3,1.2,0.8c0.1,0.7,0.3,0.7,1.1-0.5c0.6-0.8,1.3-2,1.5-2.7c0.4-1,0.8-1.2,1.9-1.1c0.8,0.1,1.5,0,1.6-0.3
	c0.1-0.3,1-0.8,2-1c1.6-0.4,1.9-0.4,1.9,0.6c0.1,0.6-0.2,1.3-0.5,1.5c-0.7,0.5-0.6,1.4,0.1,1.3c0.3,0,0.7-0.8,1-1.7
	c0.6-2,2.6-2.4,3.4-0.7c0.3,0.7,0.7,0.9,0.9,0.5c0.4-0.8,6.2,0.4,6.3,1.3c0,0.3-0.4,1.5-1,2.6c-0.6,1.1-0.8,2-0.5,1.9
	s0.7-0.5,0.9-1.1c0.1-0.6,0.7-1.5,1.3-2c1-1,1.2-1,3.7-0.4c1.9,0.5,2.7,1,2.8,1.7c0.1,0.8,0.3,0.9,1.3,0.6c0.8-0.3,1.6-0.1,2.5,0.5
	c0.7,0.5,2.9,1.4,4.8,2.1c1.9,0.6,3.8,1.6,4.2,2.1c0.4,0.5,1.2,0.9,1.6,0.8c1.2-0.1,2.4,0.8,2.5,1.9c0.1,0.7,0.4,0.8,1.5,0.5
	c1.1-0.3,1.5-0.1,1.9,0.7c0.2,0.6,0.8,1.1,1.3,1c0.5,0,1,0.4,1.2,1c0.2,0.6,1.1,1.1,1.9,1.2c0.8,0.1,2.2,0.7,3.1,1.2
	c0.8,0.6,2.3,1.4,3.2,1.8c1.9,0.9,3.9,3.5,3.5,4.6c-0.4,1.1-5.4,1.5-6.4,0.4c-0.6-0.7-1.7-0.7-5.5-0.3c-3.8,0.4-4.7,0.4-4.7-0.3
	c0-0.4,0.2-0.9,0.5-1.1c0.3-0.2,0.5-0.7,0.5-1c0-0.3-0.9,0.3-1.9,1.5c-1.9,2.2-3.3,2.7-5.6,1.8c-0.7-0.3-1.9-0.4-2.6-0.3
	c-1,0.2-1.3,0-1.4-0.9c-0.1-1.1-0.2-1.1-1.1-0.2c-1.1,1.1-3.1,1.4-5.8,0.8c-2.2-0.5-2.5-1.7-1.1-4.9c1.3-2.8,1.2-2.9-0.4-1.1
	c-0.7,0.9-1.3,1.9-1.3,2.3c0.1,1.5-1.8,3.1-4.5,3.7l-2.8,0.6l-0.1-3.5c-0.1-1.9-0.3-3.5-0.4-3.5c-0.2,0-0.5,1.5-0.7,3.2
	c-0.5,3.7-1,4.2-4.2,5l-2.4,0.6l-0.2-4.7c-0.1-3.6-0.2-4.2-0.5-2.5c-0.2,1.2-0.2,3.5-0.1,5.1c0.3,3.3-0.4,4.5-2.1,3.8
	c-0.7-0.3-1.2-1.1-1.3-2.1l-0.2-1.7l-0.3,1.7c-0.5,2.7-1.8,4.6-3.3,4.6c-1.2,0-1.3-0.4-1.7-4c-0.6-5.7-0.7-5.8-1.3-5.7
	c-0.3,0-0.4,2.3-0.3,5.2c0.3,4.9,0.2,5.2-1,5.4C97.8,37.1,96.8,36.8,95.9,36L95.9,36z M94,27.8c-0.2-0.3-0.3,0.1-0.2,1
	c0.1,0.9,0.2,1.1,0.3,0.6C94.3,28.8,94.2,28.1,94,27.8L94,27.8z M62,27.6c-0.2-0.3-0.7-0.5-1-0.5c-0.4,0-0.3,0.3,0.2,0.8
	C62,28.7,62.7,28.4,62,27.6L62,27.6z M86,9.6c-0.2-0.2-0.3,0.2-0.2,0.7c0.1,0.6,0.2,0.7,0.4,0.3C86.3,10.3,86.2,9.8,86,9.6z"/>
<g>
	<g>
		<path class="st1" d="M47.3,29.6c-9.1-3.4-16.1-8.3-3.2-17c5.5-3.6,13.3-7,19.1-8.2c9.9-2.1,7.7,3.6,7.3,4.4
			c-1.3,4.1-5.9,8.4-8,10.1c-0.6,0.4-1,0.5-1.4,0.8c-0.8,0.8,0.4,2,1.4,1.9c0.8,0,1.2-0.3,1.8-0.7c2.3-1.5,8-7,9-12
			c0.5-1.8,0.1-4-1.2-5.3c-3-2.9-10.7-1.4-14.4-0.2c-11,3.5-24.2,12-23.1,19.3c1,6.6,13.3,10.3,22.3,13.3
			c17.6,5.9,0.8,20.6-5.3,25.5c-8.3,6.7-26.7,15.3-34,11.3C9.9,68.5,20.6,58,24,55.6c4-2.8,8.7-5.5,12.8-6.7c5.7-1.6,7.2-1,8.2-0.5
			c0.7,0.8,1.5,0.8,1.8-0.2c0.3-0.8-0.3-1.4-0.8-1.7c-9.3-4.4-36.4,11.7-33.2,23.5c4.6,16.3,43.8-2.7,52.5-19.9
			C72.6,35.8,58.9,34,47.3,29.6z"/>
		<path class="st1" d="M187.6,5.6c-8.4,4.3-25.9,28-32.5,44.5c0,0-0.1,0.1-0.1,0.1c-1.7,1.8-6.8,6.9-10.9,9.2
			c-0.8,0.4-5.3,3.1-3.2-2.8c1.5-4.3,4.7-10.5,6.3-13.2c0.5-0.5,0-1.1-0.5-1.3c-0.6-0.3-1.1-0.2-1.4,0c-0.1,0.1-0.7,0.8-2.1,2.5
			c-2.1-4.6-8.3,0.7-12.1,5.3c-0.1,0.1-0.2,0.2-0.4,0.4c-2.8,3.1-6.8,8.5-8.4,8.5c-1.2,0-0.7-3.4,0.6-6.5c1.1-2.7,2.4-5.4,3-6.8
			c0.5-1.1-1.6-2-2.3-0.9c-2.5,3.5-11.4,14.4-15.4,15.9c-1.2,0.5-1.5-0.4-1.4-1.5c0-1.9,1.2-4.9,2.7-7.8c0.2-0.2,0.4-0.4,0.6-0.6
			c0.3-0.3,0.3-0.7,0.2-1c1.5-2.9,3.1-5.5,4-6.8c0.5-0.9-0.5-1.7-1.4-1.5c-0.3,0-0.6,0.1-0.7,0.4c-1.1,1.6-3,4.8-4.6,8.1
			c-1,1-2,1.9-3,2.7c-3.3,2.9-5.9,4.7-7.7,5.8c-1.7,1-3.3,1.8-4.9,1.8c-0.9-0.1-1.2-0.6-1.4-1.2c0-0.1,0-0.1-0.1-0.2
			c4.8-5,11.4-11.3,14-13c1.8-0.3,0.8-2.3-0.9-2c-1.4,0.3-7.7,6.1-13.1,11.6c0.5-3.5,2.3-8,3.7-10.8c0.5-0.9-0.7-1.6-1.6-1.5
			c-0.2,0.1-0.6,0.2-0.7,0.5c-0.8,1.5-1.9,4.1-2.8,6.9c-2.9,2.6-11.5,9.5-16.3,10.5c-2.2,0.5-3.1-1.9-1.5-6.2
			c0.4,1.4,2.2,1.2,3.4,0.7c2.3-1.1,6.3-4.6,7.8-7c2.8-5.1-1-8.7-6.7-3.5C72,48.2,67.6,54.8,68.2,59c0.3,1.4,0.9,2.5,1.7,3.1
			c3,2.2,8.3-1,12-3.5c2.4-1.6,4.5-3.2,6.2-4.6c-0.2,1.3-0.3,2.6-0.2,3.7c-3,3.1-5.2,5.7-5.3,6.4c-0.2,0.8,0.5,1.2,1,1.2
			c0.8,0.3,1.4-0.2,1.4-0.6c0.5-0.9,1.9-2.5,3.8-4.5c2,2.5,5.4,1.7,8,0.4c2.7-1.3,5.8-3.5,8.5-5.9c-0.6,1.8-1,3.4-0.9,4.6
			c0.3,2.4,2.5,4.6,6.7,1.8c2.6-1.7,7.8-7.7,10-10.2c-1.1,3-2.5,7.6-1.4,9.2c0.5,0.7,1.2,0.9,2,0.9c1.1-0.1,2.7-1.4,4.4-3
			c-0.6,2-0.4,3.6,1.5,4.1c1.3,0.4,2.4-0.2,3.8-1.4c2.5-2,5.8-5.8,8-8.2c-1.2,2.6-2.5,6.3-1.3,8.4c0.8,1.4,2.5,1.4,4,1.1
			c3.4-0.7,7.8-4.4,11.2-7.7c-0.7,2.4-1.1,4.6-1,6.4c0.1,3.6,2.1,5.8,5,5.6c2.1-0.1,3.5-0.8,5-1.7c4.9-3,11.2-9.2,15.2-13.5
			c0.2-0.3,0.2-0.6,0.1-0.7c-0.3-0.8-1.4-1.2-2.1-0.5c-3,3.3-10.1,10.3-15.4,13.4c-4.4,2.4-6.2-0.8-5.5-5.4c0.4-2.2,1.2-4.5,1.9-6.5
			c0.3,0,0.5-0.1,0.8-0.3c4.8-4.1,14.9-13.4,22.6-22c3.9-4.5,10-12,12.2-17.7C194.8,5.5,191.2,3.8,187.6,5.6z M79.7,44.6
			c1.7-1,1.6,0.3,1.4,0.9c-0.1,0.6-0.5,1.4-0.9,2.1c-1.2,1.7-3.5,3.8-5.4,5c-0.2,0.2-0.9,0.6-1.1,0.7c-0.8,0.3-0.7-0.7-1.1-1
			C74.5,49.2,77.3,46.2,79.7,44.6z M129.4,59.9c-0.9,0.8-1.1,0.2-0.8-0.9c0.3-0.8,0.7-1.9,1.6-3.7c1.4-2.3,2.9-4.2,4-5.4
			c1.3-1.4,4.6-4.9,6.7-4.9c0.6,0,0.9,0.6,0.5,1.8C138.8,50.1,132.9,57.2,129.4,59.9z M188.6,14c-6.3,11.3-20.9,25.3-30,33.4
			c7.4-16.1,23.7-36.7,30.3-40.1c0.5-0.3,1-0.4,1.3-0.3C190.7,7.2,191.1,9.2,188.6,14z"/>
	</g>
	<g>
		<path class="st1" d="M27.9,39.9c-0.2-0.3-0.4-1.1-3,0.5c-3,1.9-10.9,8.8-16.1,13.5c-0.2-0.1-0.5-0.1-0.7,0
			c-0.2-0.1-0.3-0.4-0.5-0.7c-1.5-3-2.4-10.6-2.7-13.8C4.1,31.1,4,20.3,4.2,15.3c0.3-1,0.4-2.2,0.2-3.5c-0.1-0.8-1.5-0.4-1.5,0.3
			c0,0.2,0,0.3,0,0.4c-0.1,0.5-0.2,2.3-0.2,2.8c0,0,0,0.3-0.1,0.4c0,0,0,0,0,0c0,0,0,0.1,0,0.1c-0.6,1.3-1,1.4-1,1.8
			c0,0.4,0.6,0.6,1.1,0.3C2.3,36.5,4.5,51.3,6.6,54.4c0.3,0.4,0.6,0.7,0.9,0.8c-1.9,1.8-3.2,3.1-3.4,3.4c-0.1,0.3,0,0.6,0.4,0.7
			c0.3,0.1,0.6,0,0.9-0.3c0,0,5-4.9,14.4-12.8c6.7-5.6,7.7-5.3,7.7-5.3c0,0,0.1,0.1,0.1,0.1C28,40.8,28.2,40.3,27.9,39.9z"/>
		<path class="st1" d="M2.6,15.8L2.6,15.8C2.6,15.8,2.6,15.8,2.6,15.8C2.6,15.8,2.6,15.8,2.6,15.8z"/>
		<path class="st1" d="M18.7,43.1c0.7-0.2,1-0.9,1.2-1.8c0.4-1.6,0.6-4.3,0.8-6c0.3,1.5,1,3.5,2.1,4c0.8,0.3,1.5-0.2,2-0.8
			c1.6-1.9,2.3-6.6,2.6-9.1c0-0.2,0-0.8-0.5-0.7c-0.3,0.1-0.6,0.3-0.6,0.7c-0.1,1.3-0.7,5.1-1.7,7.4c-0.2,0.4-1.3,3-2.3-0.2
			c-0.7-2.3-1.4-6-1.5-7.6c0-0.3-0.3-0.5-0.6-0.4c-0.3,0.1-0.5,0.3-0.6,0.5c0,0.1,0,0.5-0.1,1.7c-2.8-1.5-3.6,5-3.4,7.8
			C16.3,40.9,16.8,43.8,18.7,43.1z M17.4,35.8c0.1-1,0.4-3.5,1.3-4.2c0.2-0.2,0.6,0,0.8,0.6c-0.1,2.2-0.3,7.1-0.9,9.4
			c-0.1,0.6-0.4,0.4-0.6-0.1c-0.1-0.4-0.3-1-0.5-2.1C17.3,37.9,17.4,36.6,17.4,35.8z"/>
	</g>
</g>
</svg>
